TITLE ""
FILE "P1Q_t_0410-0419.mp3" MP3
  TRACK 01 AUDIO
    TITLE "P1Q_t_0410-0419_01"
    INDEX 01 00:00:00
  TRACK 02 AUDIO
    TITLE "P1Q_t_0410-0419_02"
    INDEX 01 00:01:33
  TRACK 03 AUDIO
    TITLE "P1Q_t_0410-0419_03"
    INDEX 01 00:01:57
  TRACK 04 AUDIO
    TITLE "P1Q_t_0410-0419_04"
    INDEX 01 00:03:32
  TRACK 05 AUDIO
    TITLE "P1Q_t_0410-0419_05"
    INDEX 01 00:03:52
  TRACK 06 AUDIO
    TITLE "P1Q_t_0410-0419_06"
    INDEX 01 00:07:63
  TRACK 07 AUDIO
    TITLE "P1Q_t_0410-0419_07"
    INDEX 01 00:08:35
  TRACK 08 AUDIO
    TITLE "P1Q_t_0410-0419_08"
    INDEX 01 00:09:62
  TRACK 09 AUDIO
    TITLE "P1Q_t_0410-0419_09"
    INDEX 01 00:10:09
  TRACK 10 AUDIO
    TITLE "P1Q_t_0410-0419_10"
    INDEX 01 00:13:19
  TRACK 11 AUDIO
    TITLE "P1Q_t_0410-0419_11"
    INDEX 01 00:13:40
  TRACK 12 AUDIO
    TITLE "P1Q_t_0410-0419_12"
    INDEX 01 00:17:60
  TRACK 13 AUDIO
    TITLE "P1Q_t_0410-0419_13"
    INDEX 01 00:18:30
  TRACK 14 AUDIO
    TITLE "P1Q_t_0410-0419_14"
    INDEX 01 00:19:51
  TRACK 15 AUDIO
    TITLE "P1Q_t_0410-0419_15"
    INDEX 01 00:19:74
  TRACK 16 AUDIO
    TITLE "P1Q_t_0410-0419_16"
    INDEX 01 00:22:49
  TRACK 17 AUDIO
    TITLE "P1Q_t_0410-0419_17"
    INDEX 01 00:22:69
  TRACK 18 AUDIO
    TITLE "P1Q_t_0410-0419_18"
    INDEX 01 00:29:20
  TRACK 19 AUDIO
    TITLE "P1Q_t_0410-0419_19"
    INDEX 01 00:29:67
  TRACK 20 AUDIO
    TITLE "P1Q_t_0410-0419_20"
    INDEX 01 00:31:05
  TRACK 21 AUDIO
    TITLE "P1Q_t_0410-0419_21"
    INDEX 01 00:31:27
  TRACK 22 AUDIO
    TITLE "P1Q_t_0410-0419_22"
    INDEX 01 00:34:25
  TRACK 23 AUDIO
    TITLE "P1Q_t_0410-0419_23"
    INDEX 01 00:34:44
  TRACK 24 AUDIO
    TITLE "P1Q_t_0410-0419_24"
    INDEX 01 00:38:42
  TRACK 25 AUDIO
    TITLE "P1Q_t_0410-0419_25"
    INDEX 01 00:39:12
  TRACK 26 AUDIO
    TITLE "P1Q_t_0410-0419_26"
    INDEX 01 00:40:29
  TRACK 27 AUDIO
    TITLE "P1Q_t_0410-0419_27"
    INDEX 01 00:40:51
  TRACK 28 AUDIO
    TITLE "P1Q_t_0410-0419_28"
    INDEX 01 00:44:10
  TRACK 29 AUDIO
    TITLE "P1Q_t_0410-0419_29"
    INDEX 01 00:44:31
  TRACK 30 AUDIO
    TITLE "P1Q_t_0410-0419_30"
    INDEX 01 00:48:19
  TRACK 31 AUDIO
    TITLE "P1Q_t_0410-0419_31"
    INDEX 01 00:48:66
  TRACK 32 AUDIO
    TITLE "P1Q_t_0410-0419_32"
    INDEX 01 00:50:04
  TRACK 33 AUDIO
    TITLE "P1Q_t_0410-0419_33"
    INDEX 01 00:50:26
  TRACK 34 AUDIO
    TITLE "P1Q_t_0410-0419_34"
    INDEX 01 00:53:05
  TRACK 35 AUDIO
    TITLE "P1Q_t_0410-0419_35"
    INDEX 01 00:53:24
  TRACK 36 AUDIO
    TITLE "P1Q_t_0410-0419_36"
    INDEX 01 00:56:58
  TRACK 37 AUDIO
    TITLE "P1Q_t_0410-0419_37"
    INDEX 01 00:57:28
  TRACK 38 AUDIO
    TITLE "P1Q_t_0410-0419_38"
    INDEX 01 00:58:41
  TRACK 39 AUDIO
    TITLE "P1Q_t_0410-0419_39"
    INDEX 01 00:58:61
  TRACK 40 AUDIO
    TITLE "P1Q_t_0410-0419_40"
    INDEX 01 01:03:28
  TRACK 41 AUDIO
    TITLE "P1Q_t_0410-0419_41"
    INDEX 01 01:03:48
  TRACK 42 AUDIO
    TITLE "P1Q_t_0410-0419_42"
    INDEX 01 01:07:36
  TRACK 43 AUDIO
    TITLE "P1Q_t_0410-0419_43"
    INDEX 01 01:08:08
  TRACK 44 AUDIO
    TITLE "P1Q_t_0410-0419_44"
    INDEX 01 01:09:25
  TRACK 45 AUDIO
    TITLE "P1Q_t_0410-0419_45"
    INDEX 01 01:09:49
  TRACK 46 AUDIO
    TITLE "P1Q_t_0410-0419_46"
    INDEX 01 01:15:20
  TRACK 47 AUDIO
    TITLE "P1Q_t_0410-0419_47"
    INDEX 01 01:15:39
  TRACK 48 AUDIO
    TITLE "P1Q_t_0410-0419_48"
    INDEX 01 01:20:68
  TRACK 49 AUDIO
    TITLE "P1Q_t_0410-0419_49"
    INDEX 01 01:21:38
  TRACK 50 AUDIO
    TITLE "P1Q_t_0410-0419_50"
    INDEX 01 01:22:67
  TRACK 51 AUDIO
    TITLE "P1Q_t_0410-0419_51"
    INDEX 01 01:23:16
  TRACK 52 AUDIO
    TITLE "P1Q_t_0410-0419_52"
    INDEX 01 01:25:36
  TRACK 53 AUDIO
    TITLE "P1Q_t_0410-0419_53"
    INDEX 01 01:25:58
  TRACK 54 AUDIO
    TITLE "P1Q_t_0410-0419_54"
    INDEX 01 01:30:16
  TRACK 55 AUDIO
    TITLE "P1Q_t_0410-0419_55"
    INDEX 01 01:30:66
  TRACK 56 AUDIO
    TITLE "P1Q_t_0410-0419_56"
    INDEX 01 01:31:70
  TRACK 57 AUDIO
    TITLE "P1Q_t_0410-0419_57"
    INDEX 01 01:32:16
  TRACK 58 AUDIO
    TITLE "P1Q_t_0410-0419_58"
    INDEX 01 01:36:26
  TRACK 59 AUDIO
    TITLE "P1Q_t_0410-0419_59"
    INDEX 01 01:36:48
  TRACK 60 AUDIO
    TITLE "P1Q_t_0410-0419_60"
    INDEX 01 01:41:27
